# xmcd
#
# Track frame offsets: 
#        150
#        18468
#        35342
#        52037
#        69178
#        83675
#        98294
#        114899
#        131934
#        151644
#        168117
#        183950
#        204197
#        218040
#        232945
#        255100
#        274698
#        288176
#        308893
#        322364
#
# Disc length: 4574 seconds
#
# Revision: 5
# Processed by: cddbd v1.5.2PL0 Copyright (c) Steve Scherf et al.
# Submitted via: ExactAudioCopyFreeDBPlugin 1.0
#
DISCID=f811dc14
DTITLE=Various Artist - Zlatna Zbirka CD1
DYEAR=2005
DGENRE=Blues
TTITLE0=Vic Damone - The shadow of your smile
TTITLE1=Petula Clark - Something
TTITLE2=Sacha Distel - This guy's in love with you
TTITLE3=Kenny Rogers - Lady
TTITLE4=Glen Campbell - And I love you so
TTITLE5=Vic Damone - Love letters
TTITLE6=Petula Clark - Your song
TTITLE7=Glen Campbell - You've lost that loving feeling
TTITLE8=Anita Harris - Anyone who had a heart
TTITLE9=John Baker - Have you ever really loved  a woman
TTITLE10=Mary Carewe - Eternal flame
TTITLE11=The Korgis - Three times a lady
TTITLE12=Kenny Rogers - Love me tender
TTITLE13=Glen Campbell - Without you
TTITLE14=The Majestics - You make me feel brand new
TTITLE15=Mary Carewe and John Baker - I want to spend my lifetime loving
TTITLE15=you
TTITLE16=Kenny Rogers - I will always love you
TTITLE17=Shirley Bassey - The power of love
TTITLE18=Ben Cramer - The last waltz
TTITLE19=Mary Carewe - My heart will go on
EXTD=
EXTT0=
EXTT1=
EXTT2=
EXTT3=
EXTT4=
EXTT5=
EXTT6=
EXTT7=
EXTT8=
EXTT9=
EXTT10=
EXTT11=
EXTT12=
EXTT13=
EXTT14=
EXTT15=
EXTT16=
EXTT17=
EXTT18=
EXTT19=
PLAYORDER=
